<svg id="Слой_1" data-name="Слой 1" xmlns="http://www.w3.org/2000/svg" viewBox="0 0 99.29 184.37"><defs><style>.cls-1{fill:#e6b904;}</style></defs><title>ic</title><ellipse class="cls-1" cx="79.66" cy="18.63" rx="19.62" ry="18.63"/><ellipse class="cls-1" cx="56.18" cy="148.87" rx="7.88" ry="7.48"/><path class="cls-1" d="M423.64,305.13l10.72-59.84s-.1-7.45-1.34-9.56-5.17-4.88-7.38-5.73a38.18,38.18,0,0,0-5-.95H394.45l-.06,0c-4.31.36-7.66,3.34-7.66,7s3.54,6.75,8,7l0,0h20.13l.09.07a5.19,5.19,0,0,1,0,10.37l-.08.07-36.56.32-.07,0c-4.3.37-7.65,3.42-7.65,7.12,0,4,3.83,7.17,8.55,7.17h30l.1,0a4.91,4.91,0,1,1-.05,9.82l-.05,0h-47a7,7,0,1,0,0,14,7.63,7.63,0,0,0,1.09-.09c.69.06,1.26.09,1.26.09l40.92.32s3,.54,3.36,1.27a8.46,8.46,0,0,1,1,4.14,24.37,24.37,0,0,1-1.13,5.14c-19.56,1-35.1,16.33-35.1,35.14,0,19.43,16.59,35.19,37.06,35.19s37.07-15.76,37.07-35.19C447.78,323,437.74,310.11,423.64,305.13Zm-12.76,54.79c-12.78,0-23.14-9.83-23.14-22s10.36-22,23.14-22S434,325.82,434,338,423.66,359.92,410.88,359.92Z" transform="translate(-354.87 -188.92)"/></svg>