<?xml version="1.0" encoding="utf-8"?>
<!-- Generator: Adobe Illustrator 24.0.1, SVG Export Plug-In . SVG Version: 6.00 Build 0)  -->
<svg version="1.1" id="Capa_1" xmlns="http://www.w3.org/2000/svg" xmlns:xlink="http://www.w3.org/1999/xlink" x="0px" y="0px"
	 viewBox="0 0 297 297" style="enable-background:new 0 0 297 297;" xml:space="preserve">
<style type="text/css">
	.st0{fill:#FFFFFF;}
</style>
<g>
	<path class="st0" d="M141.9,185.8c1.9,1.7,4.2,2.5,6.6,2.5c2.4,0,4.7-0.8,6.6-2.5c2.4-2.1,58.4-52,58.4-103.8c0-35.8-29.1-65-65-65
		c-35.8,0-65,29.2-65,65C83.5,133.8,139.5,183.7,141.9,185.8z M148.5,65c9.3,0,16.8,7.6,16.8,17c0,9.4-7.5,17-16.8,17
		c-9.3,0-16.8-7.6-16.8-17C131.7,72.6,139.2,65,148.5,65z"/>
	<path class="st0" d="M273.4,185.8l-7.5-26.4c-1.2-4.3-5.1-7.2-9.6-7.2h-53.7c-1.9,2.9-4,5.8-6.2,8.7
		c-15.1,20.2-30.4,33.9-32.1,35.4c-4.4,3.8-10,6-15.8,6c-5.8,0-11.4-2.1-15.8-6c-1.7-1.5-17-15.2-32.1-35.4
		c-2.2-2.9-4.2-5.8-6.2-8.7H40.8c-4.5,0-8.4,3-9.6,7.2l-9,31.4l200.5,36.7L273.4,185.8z"/>
	<path class="st0" d="M296.6,267.3l-19.2-67.4L182,280H287c3.1,0,6.1-1.5,8-4C296.9,273.5,297.5,270.3,296.6,267.3z"/>
	<path class="st0" d="M48.8,209.9l-30.4-5.6l-18,63c-0.9,3-0.3,6.2,1.6,8.7c1.9,2.5,4.8,4,8,4h38.8V209.9z"/>
	<polygon class="st0" points="62.7,212.4 62.7,280 160.3,280 208.9,239.2 	"/>
</g>
</svg>
